<?xml version="1.0" encoding="UTF-8" standalone="no"?>
<svg
   xmlns:dc="http://purl.org/dc/elements/1.1/"
   xmlns:cc="http://creativecommons.org/ns#"
   xmlns:rdf="http://www.w3.org/1999/02/22-rdf-syntax-ns#"
   xmlns:svg="http://www.w3.org/2000/svg"
   xmlns="http://www.w3.org/2000/svg"
   xmlns:sodipodi="http://sodipodi.sourceforge.net/DTD/sodipodi-0.dtd"
   xmlns:inkscape="http://www.inkscape.org/namespaces/inkscape"
   width="88.561867mm"
   height="24.41997mm"
   viewBox="0 0 88.561867 24.41997"
   version="1.1"
   id="svg549"
   inkscape:version="1.0.1 (3bc2e813f5, 2020-09-07)"
   sodipodi:docname="logo_horizontal_colorido.svg">
  <defs
     id="defs543" />
  <sodipodi:namedview
     id="base"
     pagecolor="#ffffff"
     bordercolor="#666666"
     borderopacity="1.0"
     inkscape:pageopacity="0.0"
     inkscape:pageshadow="2"
     inkscape:zoom="0.7"
     inkscape:cx="350.58047"
     inkscape:cy="152.07892"
     inkscape:document-units="mm"
     inkscape:current-layer="layer1"
     inkscape:document-rotation="0"
     showgrid="false"
     fit-margin-top="0"
     fit-margin-left="0"
     fit-margin-right="0"
     fit-margin-bottom="0"
     inkscape:window-width="1512"
     inkscape:window-height="1041"
     inkscape:window-x="52"
     inkscape:window-y="0"
     inkscape:window-maximized="0" />
  <metadata
     id="metadata546">
    <rdf:RDF>
      <cc:Work
         rdf:about="">
        <dc:format>image/svg+xml</dc:format>
        <dc:type
           rdf:resource="http://purl.org/dc/dcmitype/StillImage" />
        <dc:title></dc:title>
      </cc:Work>
    </rdf:RDF>
  </metadata>
  <g
     inkscape:label="Layer 1"
     inkscape:groupmode="layer"
     id="layer1"
     transform="translate(-87.254781,-132.93286)">
    <g
       id="g673">
      <path
         fill="#359830"
         d="m 104.39978,149.60203 c 0,0.26458 -0.21167,0.47625 -0.47625,0.47625 h -3.995207 c -0.264584,0 -0.47625,-0.21167 -0.47625,-0.47625 v -4.02167 c 0,-0.26458 0.211666,-0.47625 0.47625,-0.47625 h 3.995207 c 0.26458,0 0.47625,0.21167 0.47625,0.47625 z"
         id="path136"
         inkscape:export-xdpi="39.860008"
         inkscape:export-ydpi="39.860008"
         style="stroke-width:0.264583" />
      <path
         fill="#359830"
         d="m 98.446656,137.66932 c 0,0.26458 -0.211667,0.47625 -0.47625,0.47625 h -3.995209 c -0.264583,0 -0.47625,-0.21167 -0.47625,-0.47625 v -4.02167 c 0,-0.26458 0.211667,-0.47625 0.47625,-0.47625 h 3.995209 c 0.264583,0 0.47625,0.21167 0.47625,0.47625 z"
         id="path152"
         inkscape:export-xdpi="39.860008"
         inkscape:export-ydpi="39.860008"
         style="stroke-width:0.264583" />
      <path
         fill="#359830"
         d="m 104.39978,137.66932 c 0,0.26458 -0.21167,0.47625 -0.47625,0.47625 h -3.995207 c -0.264584,0 -0.47625,-0.21167 -0.47625,-0.47625 v -4.02167 c 0,-0.26458 0.211666,-0.47625 0.47625,-0.47625 h 3.995207 c 0.26458,0 0.47625,0.21167 0.47625,0.47625 z"
         id="path154"
         inkscape:export-xdpi="39.860008"
         inkscape:export-ydpi="39.860008"
         style="stroke-width:0.264583" />
      <path
         fill="#359830"
         d="m 92.467072,143.62244 c 0,0.26459 -0.211666,0.47625 -0.47625,0.47625 h -4.021666 c -0.264584,0 -0.47625,-0.21166 -0.47625,-0.47625 v -3.9952 c 0,-0.26459 0.211666,-0.47625 0.47625,-0.47625 h 4.021666 c 0.264584,0 0.47625,0.21166 0.47625,0.47625 z"
         id="path156"
         inkscape:export-xdpi="39.860008"
         inkscape:export-ydpi="39.860008"
         style="stroke-width:0.264583" />
      <path
         fill="#359830"
         d="m 98.446656,143.62244 c 0,0.26459 -0.211667,0.47625 -0.47625,0.47625 h -3.995209 c -0.264583,0 -0.47625,-0.21166 -0.47625,-0.47625 v -3.9952 c 0,-0.26459 0.211667,-0.47625 0.47625,-0.47625 h 3.995209 c 0.264583,0 0.47625,0.21166 0.47625,0.47625 z"
         id="path158"
         inkscape:export-xdpi="39.860008"
         inkscape:export-ydpi="39.860008"
         style="stroke-width:0.264583" />
      <path
         fill="#359830"
         d="m 92.467072,149.60203 c 0,0.26458 -0.211666,0.47625 -0.47625,0.47625 h -4.021666 c -0.264584,0 -0.47625,-0.21167 -0.47625,-0.47625 v -4.02167 c 0,-0.26458 0.211666,-0.47625 0.47625,-0.47625 h 4.021666 c 0.264584,0 0.47625,0.21167 0.47625,0.47625 z"
         id="path160"
         inkscape:export-xdpi="39.860008"
         inkscape:export-ydpi="39.860008"
         style="stroke-width:0.264583" />
      <path
         fill="#359830"
         d="m 98.446656,149.60203 c 0,0.26458 -0.211667,0.47625 -0.47625,0.47625 h -3.995209 c -0.264583,0 -0.47625,-0.21167 -0.47625,-0.47625 v -4.02167 c 0,-0.26458 0.211667,-0.47625 0.47625,-0.47625 h 3.995209 c 0.264583,0 0.47625,0.21167 0.47625,0.47625 z"
         id="path162"
         inkscape:export-xdpi="39.860008"
         inkscape:export-ydpi="39.860008"
         style="stroke-width:0.264583" />
      <path
         fill="#359830"
         d="m 92.467072,155.58161 c 0,0.26458 -0.211666,0.47625 -0.47625,0.47625 h -4.021666 c -0.264584,0 -0.47625,-0.21167 -0.47625,-0.47625 v -3.99521 c 0,-0.26458 0.211666,-0.47625 0.47625,-0.47625 h 4.021666 c 0.264584,0 0.47625,0.21167 0.47625,0.47625 z"
         id="path164"
         inkscape:export-xdpi="39.860008"
         inkscape:export-ydpi="39.860008"
         style="stroke-width:0.264583" />
      <path
         fill="#359830"
         d="m 98.446656,155.58161 c 0,0.26458 -0.211667,0.47625 -0.47625,0.47625 h -3.995209 c -0.264583,0 -0.47625,-0.21167 -0.47625,-0.47625 v -3.99521 c 0,-0.26458 0.211667,-0.47625 0.47625,-0.47625 h 3.995209 c 0.264583,0 0.47625,0.21167 0.47625,0.47625 z"
         id="path166"
         inkscape:export-xdpi="39.860008"
         inkscape:export-ydpi="39.860008"
         style="stroke-width:0.264583" />
      <path
         fill="#c90c0f"
         d="m 92.705197,135.65849 c 0,1.50812 -1.217083,2.7252 -2.725208,2.7252 -1.508125,0 -2.725208,-1.21708 -2.725208,-2.7252 0,-1.50813 1.217083,-2.72521 2.725208,-2.72521 1.508125,-0.0265 2.725208,1.21708 2.725208,2.72521"
         id="path168"
         inkscape:export-xdpi="39.860008"
         inkscape:export-ydpi="39.860008"
         style="stroke-width:0.264583" />
      <g
         aria-label="INSTITUTO FEDERAL"
         transform="scale(1.0008496,0.99915112)"
         id="text188"
         style="font-size:3.1777px;stroke-width:0.264808">
        <path
           d="m 107.80504,144.12515 v -4.95603 h 1.05087 v 4.95603 z"
           style="font-style:normal;font-variant:normal;font-weight:bold;font-stretch:normal;font-size:6.94251px;font-family:'Open Sans';-inkscape-font-specification:'Open Sans Bold';fill:#281d16;stroke-width:0.265033"
           id="path694" />
        <path
           d="m 114.50009,144.12515 h -1.33562 l -2.15598,-3.74922 h -0.0305 q 0.0644,0.99324 0.0644,1.41697 v 2.33225 h -0.939 v -4.95603 h 1.32545 l 2.15258,3.71194 h 0.0237 q -0.0508,-0.96612 -0.0508,-1.36613 v -2.34581 h 0.94579 z"
           style="font-style:normal;font-variant:normal;font-weight:bold;font-stretch:normal;font-size:6.94251px;font-family:'Open Sans';-inkscape-font-specification:'Open Sans Bold';fill:#281d16;stroke-width:0.265033"
           id="path696" />
        <path
           d="m 118.67305,142.74885 q 0,0.6712 -0.48476,1.05765 -0.48136,0.38645 -1.3424,0.38645 -0.79323,0 -1.40341,-0.29831 v -0.97629 q 0.5017,0.22373 0.84747,0.31526 0.34916,0.0915 0.6373,0.0915 0.34577,0 0.52883,-0.13221 0.18644,-0.13221 0.18644,-0.39323 0,-0.14576 -0.0814,-0.25763 -0.0814,-0.11526 -0.24068,-0.22034 -0.15593,-0.10509 -0.64069,-0.3356 -0.45425,-0.21357 -0.68137,-0.41018 -0.22712,-0.19661 -0.36272,-0.45764 -0.13559,-0.26102 -0.13559,-0.61018 0,-0.65764 0.44407,-1.03392 0.44747,-0.37628 1.23392,-0.37628 0.38645,0 0.73561,0.0915 0.35255,0.0915 0.73561,0.25763 l -0.33899,0.81697 q -0.39662,-0.16272 -0.65764,-0.22712 -0.25763,-0.0644 -0.50848,-0.0644 -0.29832,0 -0.45764,0.13898 -0.15933,0.13899 -0.15933,0.36272 0,0.13899 0.0644,0.24408 0.0644,0.10169 0.2034,0.2 0.14237,0.0949 0.66781,0.34577 0.69493,0.33221 0.95256,0.66781 0.25763,0.33221 0.25763,0.81696 z"
           style="font-style:normal;font-variant:normal;font-weight:bold;font-stretch:normal;font-size:6.94251px;font-family:'Open Sans';-inkscape-font-specification:'Open Sans Bold';fill:#281d16;stroke-width:0.265033"
           id="path698" />
        <path
           d="m 121.48328,144.12515 h -1.05087 v -4.08143 h -1.34579 v -0.8746 h 3.74244 v 0.8746 h -1.34578 z"
           style="font-style:normal;font-variant:normal;font-weight:bold;font-stretch:normal;font-size:6.94251px;font-family:'Open Sans';-inkscape-font-specification:'Open Sans Bold';fill:#281d16;stroke-width:0.265033"
           id="path700" />
        <path
           d="m 123.59179,144.12515 v -4.95603 h 1.05087 v 4.95603 z"
           style="font-style:normal;font-variant:normal;font-weight:bold;font-stretch:normal;font-size:6.94251px;font-family:'Open Sans';-inkscape-font-specification:'Open Sans Bold';fill:#281d16;stroke-width:0.265033"
           id="path702" />
        <path
           d="m 127.80204,144.12515 h -1.05086 v -4.08143 h -1.34579 v -0.8746 h 3.74244 v 0.8746 h -1.34579 z"
           style="font-style:normal;font-variant:normal;font-weight:bold;font-stretch:normal;font-size:6.94251px;font-family:'Open Sans';-inkscape-font-specification:'Open Sans Bold';fill:#281d16;stroke-width:0.265033"
           id="path704" />
        <path
           d="m 133.94454,139.16912 v 3.20685 q 0,0.54916 -0.24746,0.96273 -0.24408,0.41356 -0.70849,0.63391 -0.46442,0.22034 -1.09833,0.22034 -0.95595,0 -1.48477,-0.48814 -0.52883,-0.49154 -0.52883,-1.3424 v -3.19329 h 1.04748 v 3.03396 q 0,0.57289 0.23051,0.8407 0.23052,0.2678 0.76273,0.2678 0.51526,0 0.74578,-0.2678 0.2339,-0.2712 0.2339,-0.84748 v -3.02718 z"
           style="font-style:normal;font-variant:normal;font-weight:bold;font-stretch:normal;font-size:6.94251px;font-family:'Open Sans';-inkscape-font-specification:'Open Sans Bold';fill:#281d16;stroke-width:0.265033"
           id="path706" />
        <path
           d="m 137.07003,144.12515 h -1.05087 v -4.08143 h -1.34579 v -0.8746 h 3.74244 v 0.8746 h -1.34578 z"
           style="font-style:normal;font-variant:normal;font-weight:bold;font-stretch:normal;font-size:6.94251px;font-family:'Open Sans';-inkscape-font-specification:'Open Sans Bold';fill:#281d16;stroke-width:0.265033"
           id="path708" />
        <path
           d="m 143.67694,141.64036 q 0,1.23053 -0.61019,1.89156 -0.61018,0.66103 -1.74918,0.66103 -1.13901,0 -1.74919,-0.66103 -0.61018,-0.66103 -0.61018,-1.89834 0,-1.23731 0.61018,-1.88818 0.61357,-0.65425 1.75597,-0.65425 1.14239,0 1.74579,0.65764 0.6068,0.65765 0.6068,1.89157 z m -3.61703,0 q 0,0.83052 0.31527,1.25087 0.31526,0.42035 0.94239,0.42035 1.25765,0 1.25765,-1.67122 0,-1.67461 -1.25087,-1.67461 -0.62713,0 -0.94579,0.42374 -0.31865,0.42034 -0.31865,1.25087 z"
           style="font-style:normal;font-variant:normal;font-weight:bold;font-stretch:normal;font-size:6.94251px;font-family:'Open Sans';-inkscape-font-specification:'Open Sans Bold';fill:#281d16;stroke-width:0.265033"
           id="path710" />
        <path
           d="m 147.54142,144.12515 h -1.03392 v -4.95603 h 2.84073 v 0.86104 h -1.80681 v 1.27799 h 1.68139 v 0.85764 h -1.68139 z"
           style="font-style:normal;font-variant:normal;font-weight:bold;font-stretch:normal;font-size:6.94251px;font-family:'Open Sans';-inkscape-font-specification:'Open Sans Bold';fill:#281d16;stroke-width:0.265033"
           id="path712" />
        <path
           d="m 153.17204,144.12515 h -2.85429 v -4.95603 h 2.85429 v 0.86104 h -1.80343 v 1.08815 h 1.678 v 0.86104 h -1.678 v 1.27799 h 1.80343 z"
           style="font-style:normal;font-variant:normal;font-weight:bold;font-stretch:normal;font-size:6.94251px;font-family:'Open Sans';-inkscape-font-specification:'Open Sans Bold';fill:#281d16;stroke-width:0.265033"
           id="path714" />
        <path
           d="m 158.3179,141.59968 q 0,1.22375 -0.69832,1.87461 -0.69493,0.65086 -2.01021,0.65086 h -1.40341 v -4.95603 h 1.55596 q 1.21358,0 1.88478,0.64069 0.6712,0.64069 0.6712,1.78987 z m -1.09155,0.0271 q 0,-1.59664 -1.41019,-1.59664 h -0.55934 v 3.22718 h 0.45086 q 1.51867,0 1.51867,-1.63054 z"
           style="font-style:normal;font-variant:normal;font-weight:bold;font-stretch:normal;font-size:6.94251px;font-family:'Open Sans';-inkscape-font-specification:'Open Sans Bold';fill:#281d16;stroke-width:0.265033"
           id="path716" />
        <path
           d="m 162.19934,144.12515 h -2.8543 v -4.95603 h 2.8543 v 0.86104 h -1.80343 v 1.08815 h 1.678 v 0.86104 h -1.678 v 1.27799 h 1.80343 z"
           style="font-style:normal;font-variant:normal;font-weight:bold;font-stretch:normal;font-size:6.94251px;font-family:'Open Sans';-inkscape-font-specification:'Open Sans Bold';fill:#281d16;stroke-width:0.265033"
           id="path718" />
        <path
           d="m 164.28412,141.36917 h 0.33899 q 0.49832,0 0.73561,-0.16611 0.23729,-0.1661 0.23729,-0.52204 0,-0.35255 -0.24407,-0.50171 -0.24068,-0.14915 -0.74917,-0.14915 h -0.31865 z m 0,0.85425 v 1.90173 h -1.05087 v -4.95603 h 1.4441 q 1.01019,0 1.49494,0.3695 0.48476,0.36611 0.48476,1.11528 0,0.43729 -0.24068,0.77967 -0.24069,0.33899 -0.68137,0.53222 1.11866,1.67122 1.45765,2.15936 h -1.16612 l -1.18308,-1.90173 z"
           style="font-style:normal;font-variant:normal;font-weight:bold;font-stretch:normal;font-size:6.94251px;font-family:'Open Sans';-inkscape-font-specification:'Open Sans Bold';fill:#281d16;stroke-width:0.265033"
           id="path720" />
        <path
           d="m 170.85035,144.12515 -0.35933,-1.17968 h -1.80681 l -0.35933,1.17968 h -1.13223 l 1.74919,-4.97637 h 1.28477 l 1.75597,4.97637 z m -0.61018,-2.06106 q -0.49831,-1.60342 -0.56272,-1.81359 -0.061,-0.21017 -0.0881,-0.33221 -0.11187,0.43391 -0.64069,2.1458 z"
           style="font-style:normal;font-variant:normal;font-weight:bold;font-stretch:normal;font-size:6.94251px;font-family:'Open Sans';-inkscape-font-specification:'Open Sans Bold';fill:#281d16;stroke-width:0.265033"
           id="path722" />
        <path
           d="m 172.60632,144.12515 v -4.95603 h 1.05087 v 4.08822 h 2.01021 v 0.86781 z"
           style="font-style:normal;font-variant:normal;font-weight:bold;font-stretch:normal;font-size:6.94251px;font-family:'Open Sans';-inkscape-font-specification:'Open Sans Bold';fill:#281d16;stroke-width:0.265033"
           id="path724" />
      </g>
      <g
         aria-label="Ceará"
         transform="scale(1.0008496,0.99915112)"
         id="text190"
         style="font-size:5.24571px;font-family:OpenSans;fill:#281d16;stroke-width:0.264808">
        <path
           d="m 109.42715,146.85516 q -0.6173,0 -0.97589,0.41238 -0.35603,0.40982 -0.35603,1.12445 0,0.73512 0.34322,1.13725 0.34579,0.39958 0.98357,0.39958 0.3919,0 0.89393,-0.14088 v 0.38165 q -0.38933,0.146 -0.96052,0.146 -0.82733,0 -1.27813,-0.50203 -0.44824,-0.50204 -0.44824,-1.42669 0,-0.57888 0.21515,-1.01431 0.21772,-0.43544 0.62498,-0.67108 0.40982,-0.23565 0.96308,-0.23565 0.58912,0 1.02967,0.21516 l -0.18441,0.37396 q -0.42519,-0.19979 -0.85038,-0.19979 z"
           style="font-style:normal;font-variant:normal;font-weight:normal;font-stretch:normal;font-family:'Open Sans';-inkscape-font-specification:'Open Sans';stroke-width:0.264808"
           id="path727" />
        <path
           d="m 112.25491,150.31559 q -0.62241,0 -0.98357,-0.37909 -0.35859,-0.37908 -0.35859,-1.05273 0,-0.67876 0.33298,-1.07834 0.33554,-0.39957 0.89904,-0.39957 0.52765,0 0.83501,0.34834 0.30737,0.34579 0.30737,0.91442 v 0.26894 h -1.93384 q 0.0128,0.49435 0.24845,0.75049 0.23821,0.25614 0.66852,0.25614 0.45336,0 0.89648,-0.18955 v 0.37909 q -0.2254,0.0973 -0.42775,0.13831 -0.19978,0.0435 -0.4841,0.0435 z m -0.11526,-2.5537 q -0.3381,0 -0.54045,0.22028 -0.19979,0.22028 -0.23565,0.60961 h 1.46767 q 0,-0.40214 -0.17929,-0.61474 -0.1793,-0.21515 -0.51228,-0.21515 z"
           style="font-style:normal;font-variant:normal;font-weight:normal;font-stretch:normal;font-family:'Open Sans';-inkscape-font-specification:'Open Sans';stroke-width:0.264808"
           id="path729" />
        <path
           d="m 115.73839,150.26436 -0.0845,-0.39958 h -0.0205 q -0.21003,0.26383 -0.42006,0.3586 -0.20747,0.0922 -0.51996,0.0922 -0.41751,0 -0.65572,-0.21516 -0.23564,-0.21516 -0.23564,-0.61217 0,-0.85038 1.36009,-0.89136 l 0.47642,-0.0154 v -0.17417 q 0,-0.33042 -0.14344,-0.48667 -0.14088,-0.1588 -0.45336,-0.1588 -0.35091,0 -0.79403,0.21515 l -0.13063,-0.32529 q 0.20747,-0.1127 0.45336,-0.17674 0.24845,-0.064 0.49691,-0.064 0.50203,0 0.7428,0.22284 0.24333,0.22284 0.24333,0.71462 v 1.91592 z m -0.96052,-0.29968 q 0.39702,0 0.62242,-0.21772 0.22796,-0.21772 0.22796,-0.60961 v -0.25358 l -0.42519,0.0179 q -0.50715,0.0179 -0.73255,0.15881 -0.22284,0.13831 -0.22284,0.43287 0,0.23053 0.13831,0.35091 0.14088,0.12039 0.39189,0.12039 z"
           style="font-style:normal;font-variant:normal;font-weight:normal;font-stretch:normal;font-family:'Open Sans';-inkscape-font-specification:'Open Sans';stroke-width:0.264808"
           id="path731" />
        <path
           d="m 118.21012,147.40586 q 0.18699,0 0.33555,0.0307 l -0.0589,0.39446 q -0.17417,-0.0384 -0.30736,-0.0384 -0.34067,0 -0.584,0.27662 -0.24077,0.27663 -0.24077,0.68902 v 1.50609 h -0.42519 v -2.80728 h 0.35091 l 0.0487,0.51996 h 0.0205 q 0.15624,-0.27406 0.37652,-0.42262 0.22028,-0.14856 0.4841,-0.14856 z"
           style="font-style:normal;font-variant:normal;font-weight:normal;font-stretch:normal;font-family:'Open Sans';-inkscape-font-specification:'Open Sans';stroke-width:0.264808"
           id="path733" />
        <path
           d="m 120.79712,150.26436 -0.0845,-0.39958 h -0.0205 q -0.21003,0.26383 -0.42006,0.3586 -0.20748,0.0922 -0.51996,0.0922 -0.41751,0 -0.65572,-0.21516 -0.23564,-0.21516 -0.23564,-0.61217 0,-0.85038 1.36009,-0.89136 l 0.47642,-0.0154 v -0.17417 q 0,-0.33042 -0.14344,-0.48667 -0.14088,-0.1588 -0.45337,-0.1588 -0.35091,0 -0.79402,0.21515 l -0.13063,-0.32529 q 0.20747,-0.1127 0.45336,-0.17674 0.24845,-0.064 0.49691,-0.064 0.50203,0 0.7428,0.22284 0.24333,0.22284 0.24333,0.71462 v 1.91592 z m -0.96052,-0.29968 q 0.39702,0 0.62242,-0.21772 0.22796,-0.21772 0.22796,-0.60961 v -0.25358 l -0.42519,0.0179 q -0.50715,0.0179 -0.73255,0.15881 -0.22284,0.13831 -0.22284,0.43287 0,0.23053 0.13831,0.35091 0.14088,0.12039 0.39189,0.12039 z m -0.0999,-2.94303 q 0.12294,-0.15881 0.26382,-0.38421 0.14344,-0.2254 0.2254,-0.39189 h 0.5174 v 0.0538 q -0.1127,0.16649 -0.33554,0.40982 -0.22284,0.24333 -0.38677,0.37652 h -0.28431 z"
           style="font-style:normal;font-variant:normal;font-weight:normal;font-stretch:normal;font-family:'Open Sans';-inkscape-font-specification:'Open Sans';stroke-width:0.264808"
           id="path735" />
      </g>
      <g
         aria-label="Campus Sobral"
         transform="scale(1.0008496,0.99915112)"
         id="text192"
         style="font-size:5.24584px;font-family:OpenSans;fill:#281d16;stroke-width:0.264808">
        <path
           d="m 109.42689,152.81702 q -0.6173,0 -0.97591,0.41239 -0.35604,0.40983 -0.35604,1.12448 0,0.73513 0.34324,1.13728 0.34579,0.39958 0.98359,0.39958 0.3919,0 0.89395,-0.14088 v 0.38166 q -0.38934,0.146 -0.96055,0.146 -0.82734,0 -1.27816,-0.50204 -0.44825,-0.50204 -0.44825,-1.42673 0,-0.57888 0.21516,-1.01433 0.21772,-0.43544 0.62499,-0.6711 0.40983,-0.23565 0.96311,-0.23565 0.58913,0 1.0297,0.21516 l -0.18443,0.37397 q -0.4252,-0.19979 -0.8504,-0.19979 z"
           style="font-style:normal;font-variant:normal;font-weight:normal;font-stretch:normal;font-family:'Open Sans';-inkscape-font-specification:'Open Sans';stroke-width:0.264808"
           id="path738" />
        <path
           d="m 112.79519,156.2263 -0.0845,-0.39958 h -0.0205 q -0.21004,0.26383 -0.42008,0.3586 -0.20748,0.0922 -0.51998,0.0922 -0.41751,0 -0.65573,-0.21516 -0.23565,-0.21516 -0.23565,-0.61218 0,-0.8504 1.36013,-0.89139 l 0.47643,-0.0154 v -0.17417 q 0,-0.33043 -0.14344,-0.48668 -0.14088,-0.15881 -0.45338,-0.15881 -0.35092,0 -0.79405,0.21516 l -0.13063,-0.3253 q 0.20748,-0.1127 0.45338,-0.17674 0.24846,-0.064 0.49692,-0.064 0.50204,0 0.74281,0.22285 0.24334,0.22284 0.24334,0.71464 v 1.91596 z m -0.96054,-0.29969 q 0.39703,0 0.62243,-0.21772 0.22797,-0.21772 0.22797,-0.60962 v -0.25359 l -0.4252,0.0179 q -0.50716,0.0179 -0.73257,0.15881 -0.22285,0.13832 -0.22285,0.43289 0,0.23053 0.13832,0.35092 0.14088,0.12038 0.3919,0.12038 z"
           style="font-style:normal;font-variant:normal;font-weight:normal;font-stretch:normal;font-family:'Open Sans';-inkscape-font-specification:'Open Sans';stroke-width:0.264808"
           id="path740" />
        <path
           d="m 117.56461,156.2263 v -1.82631 q 0,-0.33555 -0.14345,-0.50204 -0.14344,-0.16906 -0.44569,-0.16906 -0.39702,0 -0.58657,0.22797 -0.18954,0.22797 -0.18954,0.70184 v 1.5676 h -0.4252 v -1.82631 q 0,-0.33555 -0.14345,-0.50204 -0.14344,-0.16906 -0.44825,-0.16906 -0.39958,0 -0.58657,0.24078 -0.18442,0.23821 -0.18442,0.7838 v 1.47283 h -0.4252 v -2.80734 h 0.34579 l 0.0692,0.38422 h 0.0205 q 0.12039,-0.20492 0.33811,-0.32018 0.22029,-0.11527 0.4918,-0.11527 0.65829,0 0.86065,0.47643 h 0.0205 q 0.12551,-0.22029 0.36372,-0.34836 0.23822,-0.12807 0.54303,-0.12807 0.47643,0 0.71208,0.2459 0.23822,0.24334 0.23822,0.78124 v 1.83143 z"
           style="font-style:normal;font-variant:normal;font-weight:normal;font-stretch:normal;font-family:'Open Sans';-inkscape-font-specification:'Open Sans';stroke-width:0.264808"
           id="path742" />
        <path
           d="m 120.17216,156.27753 q -0.27408,0 -0.50205,-0.0999 -0.2254,-0.10246 -0.37909,-0.3125 h -0.0307 q 0.0307,0.2459 0.0307,0.46618 v 1.15521 h -0.4252 v -4.06757 h 0.3458 l 0.0589,0.38422 h 0.0205 q 0.16393,-0.23053 0.38166,-0.33299 0.21772,-0.10246 0.49948,-0.10246 0.55839,0 0.86064,0.38166 0.30481,0.38165 0.30481,1.07068 0,0.69159 -0.30993,1.07581 -0.30737,0.38165 -0.85552,0.38165 z m -0.0615,-2.54864 q -0.43032,0 -0.62243,0.23822 -0.19211,0.23821 -0.19723,0.75819 v 0.0948 q 0,0.59169 0.19723,0.84784 0.19723,0.25358 0.63268,0.25358 0.36372,0 0.56864,-0.29457 0.20748,-0.29456 0.20748,-0.81197 0,-0.5251 -0.20748,-0.8043 -0.20492,-0.28176 -0.57889,-0.28176 z"
           style="font-style:normal;font-variant:normal;font-weight:normal;font-stretch:normal;font-family:'Open Sans';-inkscape-font-specification:'Open Sans';stroke-width:0.264808"
           id="path744" />
        <path
           d="m 122.48002,153.41896 v 1.82119 q 0,0.34323 0.15625,0.51229 0.15625,0.16905 0.48923,0.16905 0.44057,0 0.64293,-0.24077 0.20491,-0.24078 0.20491,-0.78637 v -1.47539 h 0.4252 v 2.80734 h -0.35092 l -0.0615,-0.37653 h -0.023 q -0.13064,0.20748 -0.36373,0.31762 -0.23053,0.11014 -0.52766,0.11014 -0.51229,0 -0.76843,-0.24334 -0.25358,-0.24333 -0.25358,-0.77867 v -1.83656 z"
           style="font-style:normal;font-variant:normal;font-weight:normal;font-stretch:normal;font-family:'Open Sans';-inkscape-font-specification:'Open Sans';stroke-width:0.264808"
           id="path746" />
        <path
           d="m 127.11111,155.46043 q 0,0.3919 -0.292,0.6045 -0.29201,0.2126 -0.81967,0.2126 -0.55839,0 -0.87089,-0.17674 v -0.39446 q 0.20236,0.10246 0.43289,0.16137 0.23309,0.0589 0.44825,0.0589 0.33299,0 0.51229,-0.10502 0.1793,-0.10758 0.1793,-0.3253 0,-0.16393 -0.14344,-0.2792 -0.14088,-0.11782 -0.55327,-0.27663 -0.3919,-0.146 -0.5584,-0.25359 -0.16393,-0.11014 -0.2459,-0.24846 -0.0794,-0.13831 -0.0794,-0.33042 0,-0.34324 0.2792,-0.54047 0.27919,-0.19979 0.76587,-0.19979 0.45337,0 0.88626,0.18442 l -0.15113,0.3458 q -0.42264,-0.17418 -0.76587,-0.17418 -0.30225,0 -0.45594,0.0948 -0.15368,0.0948 -0.15368,0.26127 0,0.11271 0.0563,0.19211 0.0589,0.0794 0.18698,0.15113 0.12808,0.0717 0.4918,0.20747 0.49948,0.18187 0.67366,0.36629 0.17674,0.18442 0.17674,0.46362 z"
           style="font-style:normal;font-variant:normal;font-weight:normal;font-stretch:normal;font-family:'Open Sans';-inkscape-font-specification:'Open Sans';stroke-width:0.264808"
           id="path748" />
        <path
           d="m 131.34262,155.2299 q 0,0.49436 -0.3586,0.771 -0.35861,0.27663 -0.97335,0.27663 -0.66598,0 -1.02458,-0.17161 v -0.42008 q 0.23053,0.0973 0.50204,0.15368 0.27152,0.0564 0.53791,0.0564 0.43544,0 0.65573,-0.16394 0.22028,-0.16649 0.22028,-0.46106 0,-0.19467 -0.0794,-0.31762 -0.0769,-0.12551 -0.26127,-0.23053 -0.18186,-0.10501 -0.55583,-0.23821 -0.52254,-0.18699 -0.74795,-0.44313 -0.22284,-0.25614 -0.22284,-0.66854 0,-0.43288 0.3253,-0.68903 0.3253,-0.25614 0.86065,-0.25614 0.55839,0 1.02714,0.20492 l -0.13576,0.37909 q -0.46362,-0.19467 -0.90163,-0.19467 -0.34579,0 -0.54046,0.14856 -0.19467,0.14857 -0.19467,0.4124 0,0.19467 0.0717,0.32018 0.0717,0.12295 0.24077,0.22797 0.17162,0.10245 0.52254,0.22796 0.58913,0.21004 0.80941,0.45082 0.22285,0.24077 0.22285,0.62499 z"
           style="font-style:normal;font-variant:normal;font-weight:normal;font-stretch:normal;font-family:'Open Sans';-inkscape-font-specification:'Open Sans';stroke-width:0.264808"
           id="path750" />
        <path
           d="m 134.46758,154.82007 q 0,0.68647 -0.34579,1.07325 -0.3458,0.38421 -0.95542,0.38421 -0.37653,0 -0.66854,-0.17674 -0.292,-0.17674 -0.45081,-0.50716 -0.15881,-0.33043 -0.15881,-0.77356 0,-0.68647 0.34323,-1.06812 0.34323,-0.38422 0.95286,-0.38422 0.58913,0 0.93493,0.3919 0.34835,0.3919 0.34835,1.06044 z m -2.1388,0 q 0,0.5379 0.21516,0.81966 0.21516,0.28176 0.63267,0.28176 0.41752,0 0.63268,-0.2792 0.21772,-0.28176 0.21772,-0.82222 0,-0.53534 -0.21772,-0.81198 -0.21516,-0.2792 -0.6378,-0.2792 -0.41751,0 -0.63011,0.27408 -0.2126,0.27407 -0.2126,0.8171 z"
           style="font-style:normal;font-variant:normal;font-weight:normal;font-stretch:normal;font-family:'Open Sans';-inkscape-font-specification:'Open Sans';stroke-width:0.264808"
           id="path752" />
        <path
           d="m 136.5193,153.37285 q 0.55327,0 0.85809,0.3791 0.30737,0.37653 0.30737,1.06812 0,0.69159 -0.30994,1.07581 -0.30737,0.38165 -0.85552,0.38165 -0.27407,0 -0.50204,-0.0999 -0.22541,-0.10246 -0.3791,-0.3125 h -0.0307 l -0.0897,0.36116 h -0.30482 v -3.98561 h 0.4252 v 0.96823 q 0,0.3253 -0.0205,0.58401 h 0.0205 q 0.29713,-0.42008 0.88114,-0.42008 z m -0.0615,0.35604 q -0.43545,0 -0.62756,0.25103 -0.19211,0.24846 -0.19211,0.84015 0,0.59169 0.19724,0.84784 0.19723,0.25358 0.63267,0.25358 0.3919,0 0.58401,-0.28432 0.19211,-0.28688 0.19211,-0.82222 0,-0.54815 -0.19211,-0.8171 -0.19211,-0.26896 -0.59425,-0.26896 z"
           style="font-style:normal;font-variant:normal;font-weight:normal;font-stretch:normal;font-family:'Open Sans';-inkscape-font-specification:'Open Sans';stroke-width:0.264808"
           id="path754" />
        <path
           d="m 139.7083,153.36773 q 0.18699,0 0.33555,0.0307 l -0.0589,0.39446 q -0.17418,-0.0384 -0.30738,-0.0384 -0.34067,0 -0.58401,0.27663 -0.24077,0.27664 -0.24077,0.68903 v 1.50613 h -0.4252 v -2.80734 h 0.35092 l 0.0487,0.51997 h 0.0205 q 0.15625,-0.27407 0.37654,-0.42264 0.22028,-0.14856 0.48411,-0.14856 z"
           style="font-style:normal;font-variant:normal;font-weight:normal;font-stretch:normal;font-family:'Open Sans';-inkscape-font-specification:'Open Sans';stroke-width:0.264808"
           id="path756" />
        <path
           d="m 142.29536,156.2263 -0.0845,-0.39958 h -0.0205 q -0.21004,0.26383 -0.42007,0.3586 -0.20748,0.0922 -0.51998,0.0922 -0.41751,0 -0.65573,-0.21516 -0.23565,-0.21516 -0.23565,-0.61218 0,-0.8504 1.36013,-0.89139 l 0.47643,-0.0154 v -0.17417 q 0,-0.33043 -0.14345,-0.48668 -0.14087,-0.15881 -0.45337,-0.15881 -0.35092,0 -0.79405,0.21516 l -0.13063,-0.3253 q 0.20747,-0.1127 0.45337,-0.17674 0.24846,-0.064 0.49692,-0.064 0.50205,0 0.74282,0.22285 0.24334,0.22284 0.24334,0.71464 v 1.91596 z m -0.96054,-0.29969 q 0.39702,0 0.62243,-0.21772 0.22797,-0.21772 0.22797,-0.60962 v -0.25359 l -0.4252,0.0179 q -0.50717,0.0179 -0.73257,0.15881 -0.22285,0.13832 -0.22285,0.43289 0,0.23053 0.13832,0.35092 0.14088,0.12038 0.3919,0.12038 z"
           style="font-style:normal;font-variant:normal;font-weight:normal;font-stretch:normal;font-family:'Open Sans';-inkscape-font-specification:'Open Sans';stroke-width:0.264808"
           id="path758" />
        <path
           d="m 143.91163,156.2263 h -0.4252 v -3.98561 h 0.4252 z"
           style="font-style:normal;font-variant:normal;font-weight:normal;font-stretch:normal;font-family:'Open Sans';-inkscape-font-specification:'Open Sans';stroke-width:0.264808"
           id="path760" />
      </g>
    </g>
  </g>
</svg>
